<svg fill="none" height="25" viewBox="0 0 24 25" width="24" xmlns="http://www.w3.org/2000/svg"><g fill="#000"><path d="m20.806 3.60801c-.7961-.9-1.8906-1.4-3.1841-1.4h-11.34329c-2.38806 0-4.27861 1.9-4.27861 4.3v11.49999c0 2.3 1.89055 4.2 4.27861 4.2h11.44279c2.3881 0 4.2786-1.9 4.2786-4.3v-11.39999c-.0995-1.1-.4975-2.1-1.194-2.9zm-.8956 14.29999c0 1.3-.995 2.3-2.2885 2.3h-11.34329c-1.29354 0-2.28856-1-2.28856-2.3v-11.39999c0-1.3.99502-2.3 2.28856-2.3h11.44279c.6965 0 1.2935.3 1.6915.8.2985.4.4975.9.4975 1.5z"/><path d="m6.3 9.50801h1v.99999c0 .6.4 1 1 1s1-.4 1-1v-.99999h1c.6 0 1-.4 1-1s-.4-1-1-1h-1v-1c0-.6-.4-1-1-1s-1 .4-1 1v1h-1c-.6 0-1 .4-1 1s.4 1 1 1z"/><path d="m17.7 14.508h-3.3c-.6 0-1 .4-1 1s.4 1 1 1h3.3c.6 0 1-.4 1-1s-.4-1-1-1z"/><path d="m17 5.80801-11.4 11.39999c-.4.4-.4 1 0 1.4.2.2.5.3.7.3s.5-.1.7-.3l11.4-11.39999c.4-.4.4-1 0-1.4s-1-.4-1.4 0z"/></g></svg>